#!OML:ASF H:\BabyWalks\Project 1\Capture day 1\Session 1\baby.ASF
:FULLY-SPECIFIED
:DEGREES
462
root -32.8669 17.3683 -0.53793 -162.577 50.6317 -156.873
lowerback 12.0039 4.58426 -3.09619
upperback 1.2011 5.72068 -6.07295
thorax -5.11212 2.98105 -5.61199
lowerneck -5.35523 -10.6029 4.10449
upperneck -6.91478 -13.3498 11.949
head -0.70377 -6.55331 2.92725
rclavicle 3.73715e-014 -3.49861e-014
rhumerus 9.05566 -23.2616 -8.24429
rradius 95.1184
rwrist 5.27535
rhand -24.0969 -5.44066
rfingers 7.12502
rthumb 2.38379 -35.4071
lclavicle 3.73715e-014 -3.49861e-014
lhumerus -57.545 -16.0213 66.1145
lradius 55.9615
lwrist 2.02833
lhand 7.25938 4.89268
lfingers 7.12502
lthumb 32.5226 31.9924
rfemur 19.8357 -33.1359 26.5907
rtibia 2.8625e-014
rfoot -15.7786 -12.7589
rtoes 12.9553
lfemur -22.3446 -16.1771 5.29292
ltibia 38.443
lfoot -24.8883 -13.7655
ltoes 3.86666
463
root -32.8598 17.3705 -0.532049 -162.603 50.4544 -157.054
lowerback 11.987 4.48437 -3.2219
upperback 1.1442 5.56663 -6.1061
thorax -5.18211 2.90613 -5.55615
lowerneck -5.40637 -10.6785 4.04715
upperneck -6.90056 -13.461 11.8974
head -0.685677 -6.60623 2.91296
rclavicle -7.15625e-014 3.18055e-015
rhumerus 8.94602 -23.298 -8.15359
rradius 95.293
rwrist 5.08326
rhand -23.537 -5.75318
rfingers 7.12502
rthumb 2.92448 -35.7129
lclavicle -7.15625e-014 3.18055e-015
lhumerus -57.5353 -16.3424 66.1917
lradius 56.1288
lwrist 2.12976
lhand 6.94356 4.89714
lfingers 7.12502
lthumb 32.222 32.0583
rfemur 19.6877 -33.2458 26.6552
rtibia 3.18055e-015
rfoot -15.8453 -12.7839
rtoes 12.9878
lfemur -22.5533 -16.211 5.30853
ltibia 38.3889
lfoot -24.8746 -13.8755
ltoes 3.94217
464
root -32.8539 17.3734 -0.525501 -162.583 50.2906 -157.202
lowerback 11.9707 4.38522 -3.29577
upperback 1.08361 5.41971 -6.14901
thorax -5.24967 2.83381 -5.54083
lowerneck -5.45634 -10.7496 3.98457
upperneck -6.89926 -13.5628 11.8624
head -0.670734 -6.65459 2.90558
rclavicle -3.10104e-014 2.00375e-013
rhumerus 9.03653 -23.4074 -8.01962
rradius 95.2871
rwrist 4.90599
rhand -22.9694 -6.05987
rfingers 7.12502
rthumb 3.47266 -36.0113
lclavicle -3.10104e-014 2.00375e-013
lhumerus -57.5001 -16.6767 66.2281
lradius 56.3366
lwrist 2.20478
lhand 6.51992 4.90328
lfingers 7.12502
lthumb 31.8186 32.1454
rfemur 19.5047 -33.3363 26.7562
rtibia -2.54444e-014
rfoot -15.9078 -12.8138
rtoes 13.0356
lfemur -22.7749 -16.2437 5.34872
ltibia 38.3318
lfoot -24.861 -13.9629
ltoes 3.99249
465
root -32.8493 17.3766 -0.51835 -162.516 50.1415 -157.31
lowerback 11.9595 4.2887 -3.31241
upperback 1.02085 5.28293 -6.19946
thorax -5.31578 2.7653 -5.56761
lowerneck -5.51241 -10.818 3.91492
upperneck -6.90505 -13.6591 11.8417
head -0.655671 -6.69978 2.90388
rclavicle -1.98785e-014 5.08889e-014
rhumerus 9.31986 -23.5813 -7.8373
rradius 95.1008
rwrist 4.75078
rhand -22.4232 -6.34838
rfingers 7.12502
rthumb 4.00008 -36.2906
lclavicle -1.98785e-014 5.08889e-014
lhumerus -57.4401 -17.0209 66.2241
lradius 56.5865
lwrist 2.25529
lhand 6.00398 4.92741
lfingers 7.12502
lthumb 31.3271 32.266
rfemur 19.2926 -33.4049 26.8939
rtibia -1.27222e-014
rfoot -15.9652 -12.8441
rtoes 13.129
lfemur -23.0068 -16.2739 5.41598
ltibia 38.2754
lfoot -24.8351 -14.0127
ltoes 4.00186
466
root -32.8461 17.3801 -0.510616 -162.408 50.0109 -157.378
lowerback 11.9623 4.19477 -3.27195
upperback 0.956731 5.15581 -6.2594
thorax -5.38479 2.70028 -5.63944
lowerneck -5.57766 -10.8835 3.84617
upperneck -6.91225 -13.7507 11.8333
head -0.638851 -6.74192 2.90547
rclavicle -2.22639e-014 2.8625e-014
rhumerus 9.78382 -23.8084 -7.60626
rradius 94.7393
rwrist 4.6178
rhand -21.9349 -6.61343
rfingers 7.12502
rthumb 4.4716 -36.5462
lclavicle -2.22639e-014 2.8625e-014
lhumerus -57.369 -17.3801 66.1838
lradius 56.8828
lwrist 2.26673
lhand 5.36095 4.97428
lfingers 7.12502
lthumb 30.7142 32.4298
rfemur 19.0619 -33.4483 27.0622
rtibia -3.81667e-014
rfoot -16.0166 -12.874
rtoes 13.2589
lfemur -23.2388 -16.3065 5.50769
ltibia 38.2223
lfoot -24.8013 -14.0267
ltoes 3.9896
467
root -32.8452 17.3839 -0.502667 -162.276 49.8984 -157.417
lowerback 11.9962 4.09988 -3.16737
upperback 0.890457 5.03345 -6.33403
thorax -5.46672 2.63603 -5.76702
lowerneck -5.65687 -10.9461 3.78291
upperneck -6.91518 -13.8391 11.8321
head -0.618289 -6.78156 2.90748
rclavicle -9.14409e-014 7.31528e-014
rhumerus 10.4177 -24.0782 -7.32652
rradius 94.2044
rwrist 4.51197
rhand -21.5318 -6.84668
rfingers 7.12502
rthumb 4.8609 -36.7709
lclavicle -9.14409e-014 7.31528e-014
lhumerus -57.2809 -17.736 66.0877
lradius 57.2228
lwrist 2.28985
lhand 4.66973 5.03411
lfingers 7.12502
lthumb 30.0549 32.6114
rfemur 18.8129 -33.4702 27.2501
rtibia 4.6118e-014
rfoot -16.0395 -12.9183
rtoes 13.3488
lfemur -23.4709 -16.3429 5.61082
ltibia 38.1735
lfoot -24.7535 -14.0088
ltoes 3.97598
468
root -32.8454 17.3875 -0.493815 -162.112 49.8114 -157.418
lowerback 12.0512 4.01193 -3.0152
upperback 0.823931 4.92531 -6.42006
thorax -5.55552 2.57751 -5.93816
lowerneck -5.74848 -11.0098 3.7243
upperneck -6.9156 -13.9288 11.8462
head -0.59394 -6.82092 2.91263
rclavicle 4.37326e-014 1.30403e-013
rhumerus 11.2014 -24.3843 -7.00106
rradius 93.4982
rwrist 4.44015
rhand -21.2303 -7.04579
rfingers 7.12502
rthumb 5.15202 -36.9632
lclavicle 4.37326e-014 1.30403e-013
lhumerus -57.1819 -18.1059 65.9502
lradius 57.6064
lwrist 2.28945
lhand 3.73769 5.12961
lfingers 7.12502
lthumb 29.1652 32.8648
rfemur 18.5549 -33.4616 27.4619
rtibia -1.11319e-014
rfoot -16.0555 -12.9676
rtoes 13.4566
lfemur -23.6909 -16.3653 5.7312
ltibia 38.1262
lfoot -24.6889 -13.9711
ltoes 3.98239
469
root -32.8474 17.3916 -0.484813 -161.939 49.7514 -157.397
lowerback 12.1406 3.92591 -2.81238
upperback 0.759733 4.82485 -6.52101
thorax -5.6559 2.52136 -6.15872
lowerneck -5.84489 -11.0705 3.6665
upperneck -6.92047 -14.0126 11.8813
head -0.568853 -6.85678 2.92435
rclavicle 2.22639e-014 2.22639e-014
rhumerus 12.1322 -24.7193 -6.63066
rradius 92.6204
rwrist 4.39537
rhand -21.0384 -7.20781
rfingers 7.12502
rthumb 5.33724 -37.1206
lclavicle 2.22639e-014 2.22639e-014
lhumerus -57.0651 -18.4583 65.743
lradius 58.0348
lwrist 2.37441
lhand 2.79433 5.30218
lfingers 7.12502
lthumb 28.264 33.1901
rfemur 18.2965 -33.4245 27.6769
rtibia 4.45278e-014
rfoot -16.0583 -13.0247
rtoes 13.5344
lfemur -23.8886 -16.4022 5.85208
ltibia 38.076
lfoot -24.5899 -13.8876
ltoes 4.03613
470
root -32.85 17.3962 -0.475045 -161.756 49.7253 -157.362
lowerback 12.2466 3.84884 -2.5924
upperback 0.697479 4.73842 -6.63099
thorax -5.76128 2.47143 -6.40311
lowerneck -5.93913 -11.1301 3.60963
upperneck -6.93744 -14.0917 11.9347
head -0.546777 -6.89039 2.94247
rclavicle 7.87187e-014 9.22361e-014
rhumerus 13.1991 -25.0771 -6.21075
rradius 91.5667
rwrist 4.37807
rhand -20.9685 -7.31993
rfingers 7.12502
rthumb 5.40479 -37.231
lclavicle 7.87187e-014 9.22361e-014
lhumerus -56.9256 -18.784 65.4686
lradius 58.4828
lwrist 2.53426
lhand 1.95521 5.35488
lfingers 7.12502
lthumb 27.4618 33.3729
rfemur 18.0347 -33.3534 27.8933
rtibia -7.95139e-015
rfoot -16.0621 -13.0846
rtoes 13.5912
lfemur -24.062 -16.4361 5.96738
ltibia 38.0194
lfoot -24.4666 -13.7638
ltoes 4.12917
471
root -32.853 17.4013 -0.464296 -161.543 49.7368 -157.299
lowerback 12.3582 3.78195 -2.35933
upperback 0.634448 4.66736 -6.74309
thorax -5.86911 2.42818 -6.66101
lowerneck -6.02598 -11.1862 3.54751
upperneck -6.97038 -14.1621 12.0077
head -0.52937 -6.92008 2.96907
rclavicle 6.36111e-015 1.90833e-014
rhumerus 14.4056 -25.4526 -5.74899
rradius 90.3326
rwrist 4.38815
rhand -21.0189 -7.38158
rfingers 7.12502
rthumb 5.35609 -37.2939
lclavicle 6.36111e-015 1.90833e-014
lhumerus -56.7714 -19.0732 65.1358
lradius 58.9519
lwrist 2.75331
lhand 1.27773 5.31115
lfingers 7.12502
lthumb 26.8136 33.4303
rfemur 17.7589 -33.2411 28.1272
rtibia -9.54166e-015
rfoot -16.0649 -13.1479
rtoes 13.6418
lfemur -24.216 -16.438 6.08794
ltibia 37.9538
lfoot -24.3202 -13.6225
ltoes 4.30288
